<svg xmlns="http://www.w3.org/2000/svg" xmlns:xlink="http://www.w3.org/1999/xlink" version="1.1" id="svg-3808" x="0px" y="0px" viewBox="0 0 141.7 141.7" xml:space="preserve"> <g> <path fill-rule="evenodd" clip-rule="evenodd" fill="#F7F07F" stroke="#010101" stroke-width="0.5556" stroke-miterlimit="22.9256" d=" M70.9,140.3c38.3,0,69.4-31.2,69.4-69.4c0-38.3-31.2-69.4-69.4-69.4C32.6,1.4,1.4,32.6,1.4,70.9C1.4,109.1,32.6,140.3,70.9,140.3z"></path> <line fill-rule="evenodd" clip-rule="evenodd" fill="none" stroke="#010101" stroke-width="2.6101" stroke-linecap="round" stroke-linejoin="round" stroke-miterlimit="22.9256" x1="36.9" y1="69.8" x2="101.4" y2="69.8"></line> <line fill-rule="evenodd" clip-rule="evenodd" fill="none" stroke="#010101" stroke-width="2.3135" stroke-linecap="round" stroke-linejoin="round" stroke-miterlimit="22.9256" x1="37.2" y1="95.8" x2="44" y2="95.8"></line> <line fill-rule="evenodd" clip-rule="evenodd" fill="none" stroke="#010101" stroke-width="2.3135" stroke-linecap="round" stroke-linejoin="round" stroke-miterlimit="22.9256" x1="95" y1="95.8" x2="101.9" y2="95.8"></line> <line fill-rule="evenodd" clip-rule="evenodd" fill="none" stroke="#010101" stroke-width="2.3518" stroke-linecap="round" stroke-linejoin="round" stroke-miterlimit="22.9256" x1="93" y1="81.7" x2="93" y2="29.4"></line> <line fill-rule="evenodd" clip-rule="evenodd" fill="none" stroke="#010101" stroke-width="2.6101" stroke-linecap="round" stroke-linejoin="round" stroke-miterlimit="22.9256" x1="36.9" y1="37.1" x2="101.4" y2="37.1"></line> <line fill-rule="evenodd" clip-rule="evenodd" fill="none" stroke="#010101" stroke-width="2.3518" stroke-linecap="round" stroke-linejoin="round" stroke-miterlimit="22.9256" x1="45.9" y1="81.7" x2="45.9" y2="29.4"></line> <line fill-rule="evenodd" clip-rule="evenodd" fill="none" stroke="#010101" stroke-width="2.3518" stroke-linecap="round" stroke-linejoin="round" stroke-miterlimit="22.9256" x1="69.4" y1="81.7" x2="69.4" y2="29.4"></line> <polyline fill-rule="evenodd" clip-rule="evenodd" fill="none" stroke="#010101" stroke-width="2.3524" stroke-linecap="round" stroke-linejoin="round" stroke-miterlimit="22.9256" points=" 40.6,95.8 39.8,31.8 98.4,31.8 98.4,95.8 "></polyline> <linearGradient id="SVGID_1_" gradientUnits="userSpaceOnUse" x1="78.3006" y1="46.2978" x2="53.1472" y2="86.1512"> <stop offset="4.975124e-003" style="stop-color:#EDA7CA"></stop> <stop offset="1" style="stop-color:#BCDCE5"></stop> </linearGradient> <path fill-rule="evenodd" clip-rule="evenodd" fill="url(#SVGID_1_)" stroke="#010101" stroke-width="2.3524" stroke-linecap="round" stroke-linejoin="round" stroke-miterlimit="22.9256" d=" M48.6,37.1h41.6c1.6,0,2.8,1.3,2.8,2.8v41.2c0,1.6-1.3,2.8-2.8,2.8H48.6c-1.6,0-2.8-1.3-2.8-2.8V39.9C45.7,38.3,47,37.1,48.6,37.1z "></path> <path fill-rule="evenodd" clip-rule="evenodd" fill="#BCDCE5" stroke="#010101" stroke-width="1.6082" stroke-linecap="round" stroke-linejoin="round" stroke-miterlimit="22.9256" d=" M109.5,81.7h9.1c0.3,0,0.6,0.3,0.6,0.6v18.4c0,0.3-0.3,0.6-0.6,0.6h-9.1c-0.3,0-0.6-0.3-0.6-0.6V82.4 C108.9,82,109.1,81.7,109.5,81.7z"></path> <path fill-rule="evenodd" clip-rule="evenodd" fill="#BCDCE5" stroke="#010101" stroke-width="1.6082" stroke-linecap="round" stroke-linejoin="round" stroke-miterlimit="22.9256" d=" M19.6,81.7h9.1c0.3,0,0.6,0.3,0.6,0.6v18.4c0,0.3-0.3,0.6-0.6,0.6h-9.1c-0.3,0-0.6-0.3-0.6-0.6V82.4C19,82,19.3,81.7,19.6,81.7z"></path> <path fill-rule="evenodd" clip-rule="evenodd" fill="#EDA7CA" stroke="#010101" stroke-width="1.6079" stroke-miterlimit="22.9256" d=" M109.8,74.8l4-6.8c0.1-0.2,0.3-0.2,0.5,0l3.9,6c0.1,0.2,0.2,0.6,0,0.8l-4,6.8c-0.1,0.2-0.3,0.2-0.5,0l-3.9-6 C109.7,75.4,109.7,75,109.8,74.8z"></path> <path fill-rule="evenodd" clip-rule="evenodd" fill="#EDA7CA" stroke="#010101" stroke-width="1.6079" stroke-miterlimit="22.9256" d=" M20,74.8l4-6.8c0.1-0.2,0.3-0.2,0.5,0l3.9,6c0.1,0.2,0.2,0.6,0,0.8l-4,6.8c-0.1,0.2-0.3,0.2-0.5,0l-3.9-6 C19.9,75.4,19.9,75,20,74.8z"></path> </g> </svg>