<svg xmlns="http://www.w3.org/2000/svg" xmlns:xlink="http://www.w3.org/1999/xlink" version="1.1" id="svg-1850" x="0px" y="0px" viewBox="0 0 141.7 141.7" xml:space="preserve"> <g> <path fill-rule="evenodd" clip-rule="evenodd" fill="#F7F07F" stroke="#010101" stroke-width="0.5556" stroke-miterlimit="22.9256" d=" M70.9,140.3c38.3,0,69.4-31.2,69.4-69.4c0-38.3-31.2-69.4-69.4-69.4C32.6,1.4,1.4,32.6,1.4,70.9C1.4,109.1,32.6,140.3,70.9,140.3z"></path> <path fill-rule="evenodd" clip-rule="evenodd" fill="#010101" d="M64.5,122.5c0.3-1.5,0.1-5.1,0.4-6.2c0.3-1.1,1.1-2.1,3.5-2.3 c2.4-0.2,3.2,0.4,4.2,1.2c3.6,3.1,2.8,6.3,4.8,10.6c2.8,6.2,12.2,2.9,12.9,0.2c2-8.2-4.2-14.3-1.3-18.2c1.2-1.7,4.2-3,4.8-5.8 c0.7-2.8,0.7-6.4-1.8-8.2c-2.5-1.8-7.2-2.7-8.4-4.3c-0.3-0.4-0.7-5.9-2-11.8c-1.1-4.7-2.1-8.9-2.1-8.9c0.4-2.4,6.4-8.5,8.4-11.8 s4.7-9.7,5.5-14.5c0.9-4.8,0-27-1-29.9c-1-2.9-3.3-4.8-5.7-4.2c-2.3,0.7-6.3,5.3-8.6,9.2c-2.3,4-6.3,11.9-7.2,14.7 c-0.9,2.8-1.5,7.4-1.5,8c0,0.6-0.3-7.1-0.7-9.2c-0.8-4.8-8.9-21.6-14.5-23.6c-3.6-1.3-5.8,3-6.2,6.2C47.5,17,45.5,23,45,29.2 c-0.6,7.6,0.3,15.6,1.2,18.9c1,3.5,7.2,14.1,9.2,16.3c2,2.1,1.3,2.5,1.3,2.5s-0.4,2.1-1.2,3.4c-0.9,1.3-1,6.2-0.8,8.6 c0.9,12.3-3,11.9-8.7,14.7c-3.6,1.8-3.7,3.5-4.2,5.3c-1,3.4,1.1,5.4,5.5,10.2c4.4,4.8,1.4,19.5,7.8,21.4 C61.2,132.3,63.7,127,64.5,122.5L64.5,122.5z M70.1,51.1l0-3.1c0.4,1.5,1.3,4.4,0.9,5.9c-0.4,5.6-0.7,5.3-1.6,7.3 c0,0.3,0.2-2.7,0.7-5L70.1,51.1z"></path> <g> <defs> <path id="XMLID_1_" d="M55.7,127.7c0,0,0.8,0.9,2.3,0.8c1.5-0.1,2.4-0.5,2.9-1.3c0.6-0.8,1.7-4.6,2.2-6.2 c0.5-1.7-0.3-6.1,1.5-7.6c1.8-1.4,5.1-2.6,7.9-0.9c2.8,1.8,4.3,4.9,5.1,6.2c0.8,1.3,0.9,4.7,2.5,7c1.6,2.2,3.4,2,5.9,1.2 c2.6-0.8,3.2-3.8,2.6-6.2c-0.5-2.4-2.3-8.4-2.6-9.9c-0.3-1.5-0.8-3.3,0.1-4.2c0.9-0.9,4.7-3,5.3-4.9c0.6-1.9,0.9-4-1-5.4 c-1.9-1.5-4.4-1.5-6.2-2.8c-1.8-1.4-3.7-2.7-4.1-5.8c-0.4-3.1-0.9-8.9-1.3-11c-0.3-2.1-1.8-7.4-1.8-8c0-0.6,2.6-6.1,3.8-7.1 c1.2-1,8.8-13.5,8.9-15c0.2-1.5,2-24.2,0.3-30.1c-1.7-6-1.1-5.3-2.3-5.6c-1.2-0.3-2,1-2.7,2.1c-0.7,1.1-8.4,12.7-9.9,14.8 c-1.5,2.1-4.8,12.8-4.9,14.1c-0.1,1.3-0.7,3.1,0.6,5c1.3,2,1.8,3.4,1.9,5.5c0,2-0.2,7.4-0.9,8.5c-0.7,1-2,2.5-2.3,3.1 c-0.3,0.5-0.4,0.7-0.4,0.7s-1.6-1.3-1.8-2.1c-0.2-0.7,0.4-4,0.5-5c0.1-1,1.9-8.3,1-11.5c-0.9-3.3-1.4-9.9-2.1-13.3 c-0.8-3.4-7.3-15.5-9.2-18.6C55.7,10.9,54,9.4,53,9.7c-1,0.3-1.5,0.4-1.7,1.8c-0.2,1.4-1.7,9.6-2,11.7c-0.3,2-1.5,16.4-1.2,19.6 c0.7,9.9,4.6,13,9.8,20.3c0.8,1.1,2.7,3.9,2.8,4.1c0.1,0.2-1.2,1.4-1.8,2.1c-0.6,0.7-1.7,3-2,5.6c-0.3,2.6,0.5,8.6,0,10.7 c-0.5,2.2-0.9,6.5-4.8,8.4c-3.9,1.9-7.1,2.4-7.4,4.7c-0.3,2.3,0.1,3.9,2.3,5.8c2.2,1.9,3.9,2.9,4.8,7.4c0.8,4.5,1.5,11.2,2,12.6 C54.2,125.8,55.3,127.6,55.7,127.7z"></path> </defs> <use xlink:href="/web/20220628000712im_/http://pinata.com.ua/#XMLID_1_" overflow="visible" fill-rule="evenodd" clip-rule="evenodd" fill="#BCDCE5"></use> <clipPath id="XMLID_3_"> <use xlink:href="/web/20220628000712im_/http://pinata.com.ua/#XMLID_1_" overflow="visible"></use> </clipPath> <linearGradient id="SVGID_1_" gradientUnits="userSpaceOnUse" x1="50.5737" y1="8.2443" x2="60.3126" y2="55.2205"> <stop offset="1.492537e-002" style="stop-color:#EDA7CA"></stop> <stop offset="0.995" style="stop-color:#822E71"></stop> </linearGradient> <path clip-path="url(#XMLID_3_)" fill-rule="evenodd" clip-rule="evenodd" fill="url(#SVGID_1_)" d="M64.7,67.5c0,0,1.4-1.3,0.9-2 c-0.5-0.6-1.8-2.2-0.9-5.1c1-2.9,2.7-6,3.3-9.1c0.6-3.1,1.3-6.7,1.3-6.7S67.1,20.9,59,13.8c-8.1-7.1-8.5-9.2-9.7-2.9 c-1.2,6.3-3.4,30.7-2.9,33.8c0.5,3.1,1.9,3.6,2.8,5c1,1.3,1.4,0.9,2.3,2.7s4.1,5.9,6.9,8.2c2.8,2.2,4.1,3.3,4.7,5.1 C63.7,67.5,64.7,67.5,64.7,67.5z"></path> <linearGradient id="SVGID_2_" gradientUnits="userSpaceOnUse" x1="91.3028" y1="6.5455" x2="80.1839" y2="44.6242"> <stop offset="1.492537e-002" style="stop-color:#EDA7CA"></stop> <stop offset="0.995" style="stop-color:#822E71"></stop> </linearGradient> <path clip-path="url(#XMLID_3_)" fill-rule="evenodd" clip-rule="evenodd" fill="url(#SVGID_2_)" d="M87.1,57.9 c2.1-2.4,5-6.5,5-6.5s4.7-23,1.2-33.2C89.8,8,90.5,6,86.3,10.9c-4.2,4.9-13.4,12.1-14.5,15c-3.9,10.3,1.4,16.5,1.8,18.5 c0.6,2.4,2,5.4,3.3,8.8c1.3,3.3-1.7,9.3-1.4,11.2c0,0,0.4,0.1,1.1-0.4c1-0.8,2.9-2.8,5-3.9C83.3,59.1,86.2,58.9,87.1,57.9z"></path> </g> <path fill-rule="evenodd" clip-rule="evenodd" fill="none" stroke="#85AAB4" stroke-width="0.49" stroke-linecap="round" stroke-linejoin="round" stroke-miterlimit="22.9256" d=" M55.7,127.7c0,0,0.8,0.9,2.3,0.8c1.5-0.1,2.4-0.5,2.9-1.3c0.6-0.8,1.7-4.6,2.2-6.2c0.5-1.7-0.3-6.1,1.5-7.6 c1.8-1.4,5.1-2.6,7.9-0.9c2.8,1.8,4.3,4.9,5.1,6.2c0.8,1.3,0.9,4.7,2.5,7c1.6,2.2,3.4,2,5.9,1.2c2.6-0.8,3.2-3.8,2.6-6.2 c-0.5-2.4-2.3-8.4-2.6-9.9c-0.3-1.5-0.8-3.3,0.1-4.2c0.9-0.9,4.7-3,5.3-4.9c0.6-1.9,0.9-4-1-5.4c-1.9-1.5-4.4-1.5-6.2-2.8 c-1.8-1.4-3.7-2.7-4.1-5.8c-0.4-3.1-0.9-8.9-1.3-11c-0.3-2.1-1.8-7.4-1.8-8c0-0.6,2.6-6.1,3.8-7.1c1.2-1,8.8-13.5,8.9-15 c0.2-1.5,2-24.2,0.3-30.1c-1.7-6-1.1-5.3-2.3-5.6c-1.2-0.3-2,1-2.7,2.1c-0.7,1.1-8.4,12.7-9.9,14.8c-1.5,2.1-4.8,12.8-4.9,14.1 c-0.1,1.3-0.7,3.1,0.6,5c1.3,2,1.8,3.4,1.9,5.5c0,2-0.2,7.4-0.9,8.5c-0.7,1-2,2.5-2.3,3.1c-0.3,0.5-0.4,0.7-0.4,0.7 s-1.6-1.3-1.8-2.1c-0.2-0.7,0.4-4,0.5-5c0.1-1,1.9-8.3,1-11.5c-0.9-3.3-1.4-9.9-2.1-13.3c-0.8-3.4-7.3-15.5-9.2-18.6 C55.7,10.9,54,9.4,53,9.7c-1,0.3-1.5,0.4-1.7,1.8c-0.2,1.4-1.7,9.6-2,11.7c-0.3,2-1.5,16.4-1.2,19.6c0.7,9.9,4.6,13,9.8,20.3 c0.8,1.1,2.7,3.9,2.8,4.1c0.1,0.2-1.2,1.4-1.8,2.1c-0.6,0.7-1.7,3-2,5.6c-0.3,2.6,0.5,8.6,0,10.7c-0.5,2.2-0.9,6.5-4.8,8.4 c-3.9,1.9-7.1,2.4-7.4,4.7c-0.3,2.3,0.1,3.9,2.3,5.8c2.2,1.9,3.9,2.9,4.8,7.4c0.8,4.5,1.5,11.2,2,12.6 C54.2,125.8,55.3,127.6,55.7,127.7z"></path> <path fill-rule="evenodd" clip-rule="evenodd" fill="none" stroke="#010101" stroke-width="0.612" stroke-linecap="round" stroke-linejoin="round" stroke-miterlimit="22.9256" d=" M59.1,74.8c0,0,1.2,2.4,2.4,2.6c1.2,0.2,2.6-0.3,3.2-0.8c0.6-0.5,1.5-1.5,1.5-1.8"></path> <path fill-rule="evenodd" clip-rule="evenodd" fill="none" stroke="#010101" stroke-width="0.6117" stroke-linecap="round" stroke-linejoin="round" stroke-miterlimit="22.9256" d=" M76.7,75.2c0,0-1.2,2.4-2.4,2.6c-1.2,0.2-2.6-0.3-3.2-0.8c-0.6-0.5-1.5-1.5-1.5-1.8"></path> <path fill-rule="evenodd" clip-rule="evenodd" fill="none" stroke="#010101" stroke-width="0.6117" stroke-linecap="round" stroke-linejoin="round" stroke-miterlimit="22.9256" d=" M58.8,76.7c0,0,0.8-0.5,1-0.7"></path> <path fill-rule="evenodd" clip-rule="evenodd" fill="none" stroke="#010101" stroke-width="0.612" stroke-linecap="round" stroke-linejoin="round" stroke-miterlimit="22.9256" d=" M77,77.1c0,0-0.8-0.5-1-0.7"></path> <path fill-rule="evenodd" clip-rule="evenodd" fill="none" stroke="#010101" stroke-width="0.612" stroke-linecap="round" stroke-linejoin="round" stroke-miterlimit="22.9256" d=" M60.6,76.9c0,0-0.3,0.5-0.5,0.9c-0.2,0.4-0.3,0.7-0.3,0.7"></path> <path fill-rule="evenodd" clip-rule="evenodd" fill="none" stroke="#010101" stroke-width="0.612" stroke-linecap="round" stroke-linejoin="round" stroke-miterlimit="22.9256" d=" M75.2,77.3c0,0,0.3,0.5,0.5,0.9c0.2,0.4,0.3,0.7,0.3,0.7"></path> <path fill-rule="evenodd" clip-rule="evenodd" fill="none" stroke="#010101" stroke-width="0.6117" stroke-linecap="round" stroke-linejoin="round" stroke-miterlimit="22.9256" d=" M64,76.9c0,0,0.2,0.6,0.5,0.9c0.2,0.4,0.4,0.6,0.4,0.6"></path> <path fill-rule="evenodd" clip-rule="evenodd" fill="none" stroke="#010101" stroke-width="0.612" stroke-linecap="round" stroke-linejoin="round" stroke-miterlimit="22.9256" d=" M71.8,77.3c0,0-0.2,0.6-0.5,0.9c-0.2,0.4-0.4,0.6-0.4,0.6"></path> <path fill-rule="evenodd" clip-rule="evenodd" fill="none" stroke="#010101" stroke-width="0.612" stroke-linecap="round" stroke-linejoin="round" stroke-miterlimit="22.9256" d=" M62.3,77.5c0,0-0.1,0.6-0.1,1c0,0.4,0,0.7,0,0.7"></path> <path fill-rule="evenodd" clip-rule="evenodd" fill="none" stroke="#010101" stroke-width="0.612" stroke-linecap="round" stroke-linejoin="round" stroke-miterlimit="22.9256" d=" M73.6,77.9c0,0,0.1,0.6,0.1,1c0,0.4,0,0.7,0,0.7"></path> <path fill-rule="evenodd" clip-rule="evenodd" fill="none" stroke="#010101" stroke-width="0.6117" stroke-linecap="round" stroke-linejoin="round" stroke-miterlimit="22.9256" d=" M65.4,76c0,0,0.5,0.3,0.9,0.5c0.4,0.1,0.7,0.2,0.7,0.2"></path> <path fill-rule="evenodd" clip-rule="evenodd" fill="none" stroke="#010101" stroke-width="0.6117" stroke-linecap="round" stroke-linejoin="round" stroke-miterlimit="22.9256" d=" M70.5,76.4c0,0-0.5,0.3-0.9,0.5c-0.4,0.1-0.7,0.2-0.7,0.2"></path> <path fill-rule="evenodd" clip-rule="evenodd" fill="#B3678A" d="M67.3,82.7C67.2,82.6,66,81.2,66,81c0.3-0.9,2.4-0.7,2.4-0.2 C68.5,81,67.3,82.9,67.3,82.7z"></path> <path fill-rule="evenodd" clip-rule="evenodd" fill="#B3678A" d="M67.3,82.7C67.2,82.6,66,81.2,66,81c0.3-0.9,2.4-0.7,2.4-0.2 C68.5,81,67.3,82.9,67.3,82.7z"></path> <path fill-rule="evenodd" clip-rule="evenodd" fill="none" stroke="#010101" stroke-width="0.4589" stroke-linecap="round" stroke-linejoin="round" stroke-miterlimit="22.9256" d=" M64.7,82.4c0,0-0.7,1-0.2,1.7c0.5,0.7,0.6,1,1.6,0.7c1-0.3,1.1-0.9,1.2-1.2c0.1-0.3,0-1.1,0-1.1s-0.1,0.7,0.3,1.3 c0.3,0.5,0.4,0.9,1.3,0.9c0.9,0,1.2-0.5,1.3-0.8c0.1-0.3,0.1-1.3-0.1-1.5"></path> <linearGradient id="SVGID_3_" gradientUnits="userSpaceOnUse" x1="69.1047" y1="86.7903" x2="68.6147" y2="105.6554"> <stop offset="0.2736" style="stop-color:#8D3A7A"></stop> <stop offset="0.5373" style="stop-color:#EDA7CA"></stop> <stop offset="0.6915" style="stop-color:#822E71"></stop> </linearGradient> <path fill-rule="evenodd" clip-rule="evenodd" fill="url(#SVGID_3_)" d="M68.2,96.2c0,0-2.4-3.9-3.9-4.3c-1.5-0.5-4.5-1.7-4.5-1.7 s-0.4,4.7-0.5,6c-0.1,1.4,0,1.3,0,2.1c0,0.8-1.2,1.7-0.6,2.3c0.6,0.6,1.1,3.3,1.9,3.5c0.8,0.2,8-4.1,8.1-4.5 c0.1-0.4,7.2,2.5,8.6,3.1c1.4,0.6,1.1-1.1,1.1-1.6c0-0.6,0.9-3.1,0.5-3.8c-0.5-0.8-1.8-4.7-2-5.5c-0.2-0.7-1.4-2.6-1.4-2.6 s-2.3,0.6-4.1,2.6c-1.7,2-2.7,3.4-2.7,4c0,0.6-0.1,1-0.1,1L68.2,96.2z"></path> </g> </svg>