<svg xmlns="http://www.w3.org/2000/svg" xmlns:xlink="http://www.w3.org/1999/xlink" version="1.1" id="svg-8750" x="0px" y="0px" viewBox="0 0 141.7 141.7" xml:space="preserve"> <g> <path fill-rule="evenodd" clip-rule="evenodd" fill="#F7F07F" stroke="#010101" stroke-width="0.5556" stroke-miterlimit="22.9256" d=" M70.9,140.3c38.3,0,69.4-31.2,69.4-69.4c0-38.3-31.2-69.4-69.4-69.4C32.6,1.4,1.4,32.6,1.4,70.9C1.4,109.1,32.6,140.3,70.9,140.3z"></path> <linearGradient id="SVGID_1_" gradientUnits="userSpaceOnUse" x1="71.447" y1="31.4782" x2="71.447" y2="103.9982"> <stop offset="4.975124e-003" style="stop-color:#EDA7CA"></stop> <stop offset="1" style="stop-color:#BCDCE5"></stop> </linearGradient> <polygon fill-rule="evenodd" clip-rule="evenodd" fill="url(#SVGID_1_)" stroke="#010101" stroke-width="2.3524" stroke-linecap="round" stroke-linejoin="round" stroke-miterlimit="22.9256" points=" 19,99.7 19,72.8 14.3,72.8 28.7,58.7 28.7,45.9 25.8,44.6 64.3,25.3 109.3,44.1 105.9,44.6 106,58.1 128.6,72.8 123.3,72.8 123.3,99.1 "></polygon> <line fill-rule="evenodd" clip-rule="evenodd" fill="none" stroke="#010101" stroke-width="2.9399" stroke-linecap="round" stroke-linejoin="round" stroke-miterlimit="22.9256" x1="48.7" y1="62.5" x2="48.7" y2="99.6"></line> <line fill-rule="evenodd" clip-rule="evenodd" fill="none" stroke="#010101" stroke-width="2.9399" stroke-linecap="round" stroke-linejoin="round" stroke-miterlimit="22.9256" x1="86.6" y1="62.5" x2="86.6" y2="99.4"></line> <path fill-rule="evenodd" clip-rule="evenodd" fill="#FFFFFF" d="M46.2,50.3h17c0.2,0,0.4,0.2,0.4,0.4v3.2h1.3 c0.3,0,0.5,0.2,0.5,0.5v4.9c0,0.3-0.2,0.5-0.5,0.5h-0.5V61c0,0,0,0.1-0.1,0.1h-0.9c0,0-0.1,0-0.1-0.1v-1.2H45.9V61 c0,0,0,0.1-0.1,0.1H45c0,0-0.1,0-0.1-0.1v-1.2h-0.4c-0.3,0-0.5-0.2-0.5-0.5v-4.9c0-0.3,0.2-0.5,0.5-0.5h1.3v-3.2 C45.8,50.5,46,50.3,46.2,50.3z"></path> <path fill-rule="evenodd" clip-rule="evenodd" fill="#FFFFFF" d="M49.6,39h9.6c0.5,0,0.9,0.4,0.9,0.9v6.3c0,0.5-0.4,0.9-0.9,0.9 h-9.6c-0.5,0-0.9-0.4-0.9-0.9v-6.3C48.7,39.4,49.1,39,49.6,39z"></path> <path fill-rule="evenodd" clip-rule="evenodd" fill="#FFFFFF" d="M24.3,71.6h5.1c0.4,0,0.7,0.3,0.7,0.7v6.6c0,0.4-0.3,0.7-0.7,0.7 h-5.1c-0.4,0-0.7-0.3-0.7-0.7v-6.6C23.6,71.9,23.9,71.6,24.3,71.6z"></path> <path fill-rule="evenodd" clip-rule="evenodd" fill="#FFFFFF" d="M57.7,85.9h6.5v-2.5c0-0.2,0.2-0.4,0.4-0.4h4.6 c0.2,0,0.4,0.2,0.4,0.4v2.5h6.6c0.2,0,0.4,0.2,0.4,0.4v3c0,0.2-0.2,0.4-0.4,0.4h-1v4.4c0,0.1-0.1,0.1-0.1,0.1h-1 c-0.1,0-0.1-0.1-0.1-0.1v-4.4h-3.6v4.5c0,0,0,0.1-0.1,0.1h-0.5c0,0-0.1,0-0.1-0.1v-3.6c0,0.1-0.1,0.1-0.2,0.1h-4.9v3.5 c0,0,0,0.1-0.1,0.1h-0.5c0,0-0.1,0-0.1-0.1v-4.5h-3.6v4.4c0,0.1-0.1,0.1-0.1,0.1h-1c-0.1,0-0.1-0.1-0.1-0.1v-4.4h-1.3 c-0.2,0-0.4-0.2-0.4-0.4v-3C57.3,86.1,57.5,85.9,57.7,85.9z"></path> <path fill-rule="evenodd" clip-rule="evenodd" fill="#FFFFFF" d="M56,88.6L56,88.6c0.1,0,0.2,0,0.2,0.1v6c0,0,0,0.1-0.1,0.1h-0.5 c0,0-0.1,0-0.1-0.1v-2.5h-3.7v2.4c0,0,0,0.1-0.1,0.1h-0.5c0,0-0.1,0-0.1-0.1v-5.4c0,0,0,0,0,0v-0.3c0-0.1,0.1-0.2,0.2-0.2h-0.1 c-0.1,0-0.1-0.1-0.1-0.1v-5.3c0-0.1,0.1-0.1,0.1-0.1h1c0.1,0,0.1,0.1,0.1,0.1v5.3c0,0.1-0.1,0.1-0.1,0.1h3.5 C55.9,88.6,56,88.6,56,88.6L56,88.6z M51.8,91.6h3.7v-1.1h-3.7V91.6z"></path> <path fill-rule="evenodd" clip-rule="evenodd" fill="#FFFFFF" d="M27.6,88.6L27.6,88.6c0.1,0,0.2,0,0.2,0.1v6c0,0,0,0.1-0.1,0.1 h-0.5c0,0-0.1,0-0.1-0.1v-2.5h-3.7v2.4c0,0,0,0.1-0.1,0.1h-0.5c0,0-0.1,0-0.1-0.1v-5.4c0,0,0,0,0,0v-0.3c0-0.1,0.1-0.2,0.2-0.2 h-0.1c-0.1,0-0.1-0.1-0.1-0.1v-5.3c0-0.1,0.1-0.1,0.1-0.1h1c0.1,0,0.1,0.1,0.1,0.1v5.3c0,0.1-0.1,0.1-0.1,0.1h3.5 C27.5,88.6,27.5,88.6,27.6,88.6L27.6,88.6z M23.4,91.6h3.7v-1.1h-3.7V91.6z"></path> <path fill-rule="evenodd" clip-rule="evenodd" fill="#FFFFFF" d="M77.9,88.3L77.9,88.3c-0.1,0-0.2,0-0.2,0.1v6c0,0,0,0.1,0.1,0.1 h0.5c0,0,0.1,0,0.1-0.1v-2.5h3.7v2.4c0,0,0,0.1,0.1,0.1h0.5c0,0,0.1,0,0.1-0.1v-5.4c0,0,0,0,0,0v-0.3c0-0.1-0.1-0.2-0.2-0.2h0.1 c0.1,0,0.1-0.1,0.1-0.1v-5.3c0-0.1-0.1-0.1-0.1-0.1h-1c-0.1,0-0.1,0.1-0.1,0.1v5.3c0,0.1,0.1,0.1,0.1,0.1H78 C78,88.3,78,88.3,77.9,88.3L77.9,88.3z M82.1,91.3h-3.7v-1.1h3.7V91.3z"></path> <path fill-rule="evenodd" clip-rule="evenodd" fill="#FFFFFF" d="M68.4,46.3h13.9c0.2,0,0.4,0.2,0.4,0.4v7.2c0,0.2-0.2,0.4-0.4,0.4 H68.4c-0.2,0-0.4-0.2-0.4-0.4v-7.2C67.9,46.5,68.1,46.3,68.4,46.3z"></path> <path fill-rule="evenodd" clip-rule="evenodd" fill="#FFFFFF" d="M88.8,59.1v-16c0-0.3,0.2-0.5,0.5-0.5h8.1c0.3,0,0.5,0.2,0.5,0.5 v16c0,0.3-0.2,0.5-0.5,0.5h-1v1.3c0,0.1,0,0.1-0.1,0.1h-1.6c-0.1,0-0.1,0-0.1-0.1v-1.3h-2.8v1.3c0,0.1,0,0.1-0.1,0.1H90 c-0.1,0-0.1,0-0.1-0.1v-1.3h-0.7C89,59.6,88.8,59.4,88.8,59.1z"></path> <path fill-rule="evenodd" clip-rule="evenodd" fill="#FFFFFF" d="M33,61.1v-1.6h-0.6c-0.1,0-0.2-0.1-0.2-0.2v-2.6 c0-0.1,0.1-0.2,0.2-0.2H38c0.1,0,0.2,0.1,0.2,0.2v2.6c0,0.1-0.1,0.2-0.2,0.2h-0.4v1.6c0,0,0,0.1-0.1,0.1h-0.9c0,0-0.1,0-0.1-0.1 v-1.6H34v1.6c0,0,0,0.1-0.1,0.1L33,61.1C33,61.1,33,61.1,33,61.1z"></path> <path fill-rule="evenodd" clip-rule="evenodd" fill="#FFFFFF" d="M67.9,61v-3.5v-0.6v0v-0.8c0,0,0-0.1,0.1-0.1h14.6 c0,0,0.1,0,0.1,0.1v0.8v0.6v0V61c0,0,0,0.1-0.1,0.1h-1.4c0,0-0.1,0-0.1-0.1v-3.4H69.5V61c0,0,0,0.1-0.1,0.1L67.9,61 C68,61,67.9,61,67.9,61z"></path> <path fill-rule="evenodd" clip-rule="evenodd" fill="#FFFFFF" d="M67.9,73c0.1,0.1,0.2,0.3,0.2,0.4c0,0.4-0.6,0.8-1.4,0.8 c-0.8,0-1.4-0.4-1.4-0.8c0-0.2,0.1-0.3,0.2-0.4c-1.5-0.2-2.6-0.7-2.6-1.4c0-0.8,1.5-1.4,3.5-1.4v-6.3c0,0,0,0,0,0h0.6c0,0,0,0,0,0 v6.3c2,0.1,3.5,0.7,3.5,1.4C70.6,72.3,69.5,72.8,67.9,73z"></path> <path fill-rule="evenodd" clip-rule="evenodd" fill="#FFFFFF" d="M95.3,71c0.1,0.1,0.1,0.2,0.1,0.3c0,0.3-0.4,0.6-0.9,0.6 c-0.5,0-0.9-0.3-0.9-0.6c0-0.1,0.1-0.2,0.1-0.3c-1-0.2-1.7-0.6-1.7-1.1c0-0.6,1-1.1,2.3-1.1v-4.9c0,0,0,0,0,0h0.4c0,0,0,0,0,0v4.9 c1.3,0.1,2.3,0.5,2.3,1.1C97.1,70.5,96.3,70.9,95.3,71z"></path> <path fill-rule="evenodd" clip-rule="evenodd" fill="#FFFFFF" d="M114.5,87.8h4.7V85c0-0.1,0.1-0.2,0.2-0.2h1.5 c0.1,0,0.2,0.1,0.2,0.2v3.9c0,0,0.3,0.7,0.3,1.1c0,0.4-0.7,1.5-0.7,1.8c0,0.2,0.7,2.3,0.7,2.3h-3.7c0,0-0.2-0.5-0.7-1.3 c-0.5-0.7-0.2-1.4-0.2-1.4s-0.2-0.3-0.8-0.8c-0.6-0.5-1.1-1.7-1.1-1.7h-0.4c-0.1,0-0.2-0.1-0.2-0.2V88 C114.2,87.9,114.3,87.8,114.5,87.8z"></path> <path fill-rule="evenodd" clip-rule="evenodd" fill="#FFFFFF" d="M92.2,77.9H97c0.4,0,0.7,0.3,0.7,0.7v6.4c0,0.4-0.3,0.7-0.7,0.7 h-4.8c-0.4,0-0.7-0.3-0.7-0.7v-6.4C91.5,78.2,91.8,77.9,92.2,77.9z"></path> <path fill-rule="evenodd" clip-rule="evenodd" fill="#FFFFFF" d="M102.7,74.7h8.1c0.6,0,1.1,0.5,1.1,1.1v17.7 c0,0.6-0.5,1.1-1.1,1.1h-8.1c-0.6,0-1.1-0.5-1.1-1.1V75.8C101.6,75.2,102.1,74.7,102.7,74.7z"></path> <path fill-rule="evenodd" clip-rule="evenodd" fill="#FFFFFF" d="M88.9,87.6h11.2c0.1,0,0.2,0.1,0.2,0.2v1.1c0,0.1-0.1,0.2-0.2,0.2 h-1.6c0.1,0,0.1,0.1,0.1,0.2v1.1c0,0.1-0.1,0.2-0.2,0.2h-1.1v4.2c0,0.1,0,0.1-0.1,0.1h-0.7c-0.1,0-0.1,0-0.1-0.1v-4.2h-4v4.2 c0,0.1,0,0.1-0.1,0.1h-0.7c-0.1,0-0.1,0-0.1-0.1v-4.2h-1.3c-0.1,0-0.1-0.1-0.1-0.2v-1.1c0-0.1,0.1-0.1,0.1-0.2h-1.4 c-0.1,0-0.2-0.1-0.2-0.2v-1.1C88.8,87.6,88.8,87.6,88.9,87.6z"></path> <path fill-rule="evenodd" clip-rule="evenodd" fill="#FFFFFF" d="M42.2,94.7v-5h-6.8v4.8c0,0.2-0.1,0.3-0.3,0.3h-4.3 c-0.2,0-0.3-0.1-0.3-0.3v-4.8h-0.3c-0.1,0-0.1-0.1-0.1-0.1v-1.7c0-0.1,0.1-0.1,0.1-0.1h6.1v-1h-3.1c-0.2,0-0.4-0.2-0.4-0.4v-5.2 c0-0.2,0.2-0.4,0.4-0.4h7.7c0.2,0,0.4,0.2,0.4,0.4v5.2c0,0.2-0.2,0.4-0.4,0.4h-2.4v1h5.6c0.1,0,0.1,0.1,0.1,0.1v1.7 c0,0.1-0.1,0.1-0.1,0.1h-0.4v5c0,0.1,0,0.1-0.1,0.1L42.2,94.7C42.3,94.8,42.2,94.7,42.2,94.7z"></path> <line fill-rule="evenodd" clip-rule="evenodd" fill="none" stroke="#010101" stroke-width="2.9399" stroke-linecap="round" stroke-linejoin="round" stroke-miterlimit="22.9256" x1="111.5" y1="62.5" x2="26.3" y2="62.5"></line> <path fill-rule="evenodd" clip-rule="evenodd" fill="#010101" stroke="#010101" stroke-width="0.5556" stroke-miterlimit="22.9256" d=" M15.8,94.7h112c0.4,0,0.8,0.4,0.8,0.8v5.8c0,0.4-0.4,0.8-0.8,0.8h-112c-0.4,0-0.8-0.4-0.8-0.8v-5.8C15,95.1,15.4,94.7,15.8,94.7z"></path> </g> </svg>