<svg xmlns="http://www.w3.org/2000/svg" xmlns:xlink="http://www.w3.org/1999/xlink" version="1.1" id="svg-7396" x="0px" y="0px" viewBox="0 0 141.7 141.7" xml:space="preserve"> <g> <path fill-rule="evenodd" clip-rule="evenodd" fill="#F7F07F" stroke="#010101" stroke-width="0.5556" stroke-miterlimit="22.9256" d=" M70.9,140.3c38.3,0,69.4-31.2,69.4-69.4c0-38.3-31.2-69.4-69.4-69.4C32.6,1.4,1.4,32.6,1.4,70.9C1.4,109.1,32.6,140.3,70.9,140.3z"></path> <path fill-rule="evenodd" clip-rule="evenodd" fill="#010101" stroke="#010101" stroke-width="2.9399" stroke-miterlimit="22.9256" d=" M64.3,109.7l-4.8,18.6c-0.3,1.3-2.5,2.1-3.7,1.8l-0.1,0c-1.3-0.3-2.9-1.6-2.6-2.9l3.6-17.4l0,0l-1.6-9.5l2.2-0.1l-1-5.4l2.1-0.1 L57.6,91l2-0.2l-1-4.9l2.1-0.2l-1.2-4l2.2,0l-0.8-5.2l2.2,0.1l-0.8-3.8l1.8-0.1l-0.9-5.5h2.2l-1.1-4.9l1.8-0.2l-0.9-4.4l1.9-0.2 l-0.7-5.1l1.9-0.6l-0.8-3.4l1.9-0.2l-0.7-5.3l1.8-0.2l-0.9-3.4l2.2-0.2l-0.7-5.3l2.5-0.2l-0.9-5.6l2.2-0.3l-0.7-5l1.8-0.3l-0.8-3.9 L77,18v-0.5l-1.2-4.9l3.5-0.5l1.4,3.8l-0.1-3.5l4.5,0.2l-0.7,4.9l2.3-3.3l3.9,1.9l-2.9,4.1l1.7,1.5l-2.7,2.6l1.7,1.3l-3.2,4 l1.9,1.9l-3.6,4l1.7,1.5l-2.9,4l1.8,1.2l-2.7,2.8l1.6,1L80,50.3l1.9,1.5l-2.8,2.5l1.9,1.6l-3.6,3.9l2,1.3l-2.6,3.2l1.9,1.4 l-3.1,3.5l1.8,1.8l-3.2,4.3l1.8,1.3l-2.3,2.3l1.7,1.3l-3.1,4l1.7,1.3l-2.4,2.5l1.7,1.4L70.2,93l1.9,1.4l-2.8,2.7l1.5,1.3l-2.8,3.8 l2.3,1.7L64.3,109.7L64.3,109.7z"></path> <g> <path fill-rule="evenodd" clip-rule="evenodd" fill="#BCDCE5" d="M83.7,21.1l-24.9,106c-0.3,1.3-1.6,2.1-2.9,1.8l-0.1,0 c-1.3-0.3-2.1-1.6-1.8-2.9L79.1,19.1c0.6,0.4,2.1-0.1,2.8,0.2C82.7,19.7,82.7,21,83.7,21.1z"></path> <polygon fill-rule="evenodd" clip-rule="evenodd" fill="#FFFFFF" points="78.2,24.2 78.2,20.7 76.9,13.7 79.6,13.7 80.4,19.1 81.5,19.8 80.9,13.1 84.1,13.3 83.4,20.1 86.9,15.3 89.3,16.7 84.9,22.9 82.1,27.2 "></polygon> <polygon fill-rule="evenodd" clip-rule="evenodd" fill="#BCDCE5" points="77,29.6 77.8,26 75.7,19.1 78.4,19.1 79.2,24.5 80.3,25.2 79.7,18.5 82.8,18.7 82.2,25.5 85.6,20.7 88,22.1 82.6,27.6 81.9,30.5 "></polygon> <polygon fill-rule="evenodd" clip-rule="evenodd" fill="#088CB1" points="76,33.3 75.9,29.8 74.7,22.8 77.3,22.8 78.2,28.2 79.3,28.9 78.7,22.3 81.8,22.4 81.1,29.2 84.6,24.4 87,25.9 82.7,32.1 79.8,36.4 "></polygon> <polygon fill-rule="evenodd" clip-rule="evenodd" fill="#11B9E5" points="74.8,38.7 74.9,35 73.4,28.2 76.1,28.2 76.9,33.6 78,34.3 77.4,27.7 80.6,27.8 79.9,34.6 83.4,29.8 85.8,31.3 80.3,36.7 79.6,39.7 "></polygon> <polygon fill-rule="evenodd" clip-rule="evenodd" fill="#BCDCE5" points="73,44.7 72.9,41.2 71.6,34.2 74.3,34.2 75.1,39.6 76.3,40.3 75.6,33.7 78.8,33.8 78.1,40.6 81.6,35.8 84,37.3 79.6,43.5 76.8,47.8 "></polygon> <polygon fill-rule="evenodd" clip-rule="evenodd" fill="#822E71" points="71.7,50.1 72.6,46.6 70.4,39.6 73.1,39.6 73.9,45 75,45.7 74.4,39.1 77.6,39.2 76.9,46 80.4,41.2 82.8,42.7 77.3,48.1 76.6,51.1 "></polygon> <polygon fill-rule="evenodd" clip-rule="evenodd" fill="#B3678A" points="70.7,53.9 70.6,50.4 69.4,43.4 72.1,43.4 72.9,48.8 74,49.5 73.4,42.8 76.5,43 75.9,49.8 79.3,45 81.7,46.4 77.4,52.6 74.5,56.9 "></polygon> <polygon fill-rule="evenodd" clip-rule="evenodd" fill="#EDA7CA" points="69.5,59.3 70.3,55.7 68.1,48.8 70.8,48.8 71.6,54.2 72.8,54.9 72.2,48.2 75.3,48.4 74.6,55.2 78.1,50.3 80.5,51.8 75,57.3 74.4,60.2 "></polygon> <polygon fill-rule="evenodd" clip-rule="evenodd" fill="#FFFFFF" points="68.6,63.1 68.5,59.6 67.2,52.6 69.9,52.6 70.7,58 71.9,58.7 71.3,52.1 74.4,52.2 73.7,59 77.2,54.2 79.6,55.6 75.3,61.8 72.4,66.1 "></polygon> <polygon fill-rule="evenodd" clip-rule="evenodd" fill="#BCDCE5" points="67.3,68.5 67.9,65 66,58 68.7,58 69.5,63.4 70.6,64.1 70,57.5 73.2,57.6 72.5,64.4 76,59.6 78.4,61 73.7,66.9 72.2,69.4 "></polygon> <polygon fill-rule="evenodd" clip-rule="evenodd" fill="#088CB1" points="66.4,73.3 67.2,69.8 65,62.9 67.7,62.9 68.5,68.2 69.6,69 69,62.3 72.2,62.4 71.5,69.3 75,64.4 77.4,65.9 71.9,71.3 71.2,74.3 "></polygon> <polygon fill-rule="evenodd" clip-rule="evenodd" fill="#11B9E5" points="65.3,78.3 65.2,74.8 64,67.8 66.2,67.8 68.6,73.9 68,67.3 71.1,67.4 70.4,74.2 74.4,69.7 76.3,70.9 72,77 69.1,81.4 "></polygon> <polygon fill-rule="evenodd" clip-rule="evenodd" fill="#822E71" points="64,83.7 64.9,80.2 62.7,73.2 65.4,73.2 66.2,78.6 67.3,79.3 66.7,72.7 69.9,72.8 69.2,79.6 72.7,74.8 75.1,76.2 69.6,81.7 68.9,84.7 "></polygon> <polygon fill-rule="evenodd" clip-rule="evenodd" fill="#B3678A" points="63,87.5 63,83.9 61.7,77 64.4,77 65.2,82.4 66.3,83.1 65.7,76.4 68.9,76.6 68.2,83.4 71.7,78.6 74,80 69.7,86.2 66.8,90.5 "></polygon> <polygon fill-rule="evenodd" clip-rule="evenodd" fill="#EDA7CA" points="61.8,92.9 62.6,89.3 60.5,82.4 63.1,82.4 64,87.8 65.1,88.5 64.5,81.8 67.6,82 66.9,88.8 70.4,83.9 72.8,85.4 67.4,90.9 66.7,93.8 "></polygon> <polygon fill-rule="evenodd" clip-rule="evenodd" fill="#FFFFFF" points="60.9,96.7 60.8,93.2 59.6,86.2 62.2,86.2 63.1,91.6 64.2,92.3 63.6,85.7 66.7,85.8 66,92.6 69.5,87.8 71.9,89.2 67.6,95.4 64.7,99.7 "></polygon> <polygon fill-rule="evenodd" clip-rule="evenodd" fill="#BCDCE5" points="59.7,102.1 60.5,98.6 58.3,91.6 61,91.6 61.8,97 63,97.7 62.3,91 65.5,91.2 64.8,98 68.3,93.2 70.7,94.6 65.2,100.1 64.5,103 "></polygon> <polygon fill-rule="evenodd" clip-rule="evenodd" fill="#088CB1" points="58.6,105.9 58.6,102.3 57.3,95.4 60,95.4 60.8,100.7 61.9,101.5 61.3,94.8 64.5,95 63.8,101.8 67.3,96.9 69.7,98.4 65.3,104.6 62.4,108.9 "></polygon> <polygon fill-rule="evenodd" clip-rule="evenodd" fill="#11B9E5" points="57.4,111.3 58.2,107.7 56.1,100.8 58.8,100.8 59.6,106.1 60.7,106.9 60.1,100.2 63.2,100.3 62.5,107.2 66,102.3 68.4,103.8 63,109.2 62.3,112.2 "></polygon> </g> </g> </svg>