<?xml version="1.0" encoding="UTF-8"?> <svg xmlns="http://www.w3.org/2000/svg" width="737" height="113" viewBox="0 0 737 113" fill="none"><path d="M0.429688 7.25781C0.429688 6.32031 1.39062 5.42969 3.3125 4.58594C5.23438 3.69531 7.78906 2.92187 10.9766 2.26562C14.1641 1.5625 17.8438 1.04688 22.0156 0.71875C26.1875 0.390625 30.5703 0.226562 35.1641 0.226562C43.6016 0.226562 51.1953 1.44531 57.9453 3.88281C64.7422 6.32031 70.5078 9.74219 75.2422 14.1484C80.0234 18.5078 83.6797 23.7344 86.2109 29.8281C88.7422 35.875 90.0078 42.5078 90.0078 49.7266C90.0078 56.2422 88.8125 61.8438 86.4219 66.5312C84.0312 71.1719 80.7969 75.0391 76.7188 78.1328C72.6406 81.1797 67.8594 83.5234 62.375 85.1641C56.8906 86.8047 51.0781 87.8125 44.9375 88.1875V100.141C44.9375 100.703 44.4453 101.172 43.4609 101.547C42.5234 101.969 41.2578 102.25 39.6641 102.391C38.1172 102.531 36.3828 102.625 34.4609 102.672C32.5391 102.719 30.6172 102.742 28.6953 102.742C25.5078 102.742 22.8594 102.742 20.75 102.742C18.6406 102.742 16.8828 102.742 15.4766 102.742C14.1172 102.742 12.9688 102.719 12.0312 102.672C11.1406 102.625 10.25 102.555 9.35938 102.461C8.98438 102.367 8.49219 100.516 7.88281 96.9062C7.27344 93.2969 6.61719 88.6328 5.91406 82.9141C5.25781 77.1953 4.57812 70.7969 3.875 63.7188C3.21875 56.5938 2.65625 49.5156 2.1875 42.4844C1.71875 35.4062 1.29688 28.75 0.921875 22.5156C0.59375 16.2812 0.429688 11.1953 0.429688 7.25781ZM44.9375 73.2109C49.8125 73.2109 53.6797 71.9453 56.5391 69.4141C59.3984 66.8828 60.8281 63.6953 60.8281 59.8516C60.8281 56.1016 59.5625 53.3828 57.0312 51.6953C54.5469 50.0078 51.875 49.1641 49.0156 49.1641C47.4688 49.1641 46.1094 49.3516 44.9375 49.7266V73.2109ZM99.9219 6.69531C99.9219 5.94531 100.062 5.35938 100.344 4.9375C100.672 4.46875 101.539 4.14063 102.945 3.95312C104.398 3.76562 106.461 3.625 109.133 3.53125C111.852 3.4375 114.547 3.39062 117.219 3.39062C121.438 3.39062 125.586 3.46094 129.664 3.60156C133.742 3.74219 137.656 4.04687 141.406 4.51562C142.25 4.70313 142.812 4.89062 143.094 5.07812C143.422 5.21875 143.586 5.61719 143.586 6.27344C143.586 7.11719 143.562 8.05469 143.516 9.08594C143.469 10.0703 143.422 11.4297 143.375 13.1641C143.328 14.8984 143.258 17.1484 143.164 19.9141C143.07 22.6328 142.953 26.1016 142.812 30.3203C142.719 34.5391 142.602 39.6484 142.461 45.6484C142.32 51.6484 142.156 58.8203 141.969 67.1641C141.781 74.8516 141.641 81.5312 141.547 87.2031C141.453 92.875 141.406 97.3281 141.406 100.562C141.406 101.828 141.125 102.555 140.562 102.742C140 102.93 139.414 103.023 138.805 103.023C136.883 103.117 134.961 103.164 133.039 103.164C131.117 103.164 129.195 103.164 127.273 103.164C123.805 103.164 120.148 103.07 116.305 102.883C112.508 102.695 109.203 102.508 106.391 102.32C105.312 102.227 104.562 101.852 104.141 101.195C103.719 100.586 103.461 99.4609 103.367 97.8203C102.43 84.0859 101.609 69.4844 100.906 54.0156C100.25 38.5 99.9219 22.7266 99.9219 6.69531ZM155.82 41.9922C155.773 36.2266 155.75 30.4609 155.75 24.6953C155.75 18.9297 155.75 13.4453 155.75 8.24219C155.75 6.50781 156.078 5.40625 156.734 4.9375C157.438 4.46875 158.75 4.14063 160.672 3.95312C164.609 3.76562 167.844 3.625 170.375 3.53125C172.906 3.4375 174.945 3.39062 176.492 3.39062C178.789 3.39062 180.477 3.55469 181.555 3.88281C182.68 4.21094 183.641 4.77344 184.438 5.57031C186.734 7.77344 189.008 10.2109 191.258 12.8828C193.508 15.5547 195.664 18.3438 197.727 21.25C199.789 24.1094 201.711 26.9688 203.492 29.8281C205.273 32.6406 206.891 35.2891 208.344 37.7734C208.344 32.8984 208.25 27.9766 208.062 23.0078C207.922 17.9922 207.852 13.0703 207.852 8.24219C207.852 6.88281 207.898 5.92188 207.992 5.35938C208.133 4.79688 208.391 4.375 208.766 4.09375C208.953 4 209.164 3.90625 209.398 3.8125C209.633 3.71875 210.055 3.64844 210.664 3.60156C211.32 3.55469 212.211 3.53125 213.336 3.53125C214.508 3.53125 216.102 3.53125 218.117 3.53125C221.211 3.53125 223.625 3.55469 225.359 3.60156C227.141 3.64844 228.453 3.71875 229.297 3.8125C230.188 3.90625 230.75 4.07031 230.984 4.30469C231.219 4.53906 231.383 4.79688 231.477 5.07812C231.57 5.54688 231.664 6.13281 231.758 6.83594C231.898 7.49219 231.992 8.57031 232.039 10.0703C232.086 11.5703 232.109 13.6562 232.109 16.3281C232.109 19 232.109 22.6094 232.109 27.1562C232.109 32.9219 232.156 38.7109 232.25 44.5234C232.344 50.2891 232.391 56.4531 232.391 63.0156C232.391 72.3438 232.367 79.9141 232.32 85.7266C232.273 91.4922 232.156 95.1016 231.969 96.5547C231.781 98.7578 231.57 100.211 231.336 100.914C231.148 101.664 230.867 102.18 230.492 102.461C230.211 102.648 229.906 102.789 229.578 102.883C229.25 102.977 228.641 103.094 227.75 103.234C226.906 103.375 225.688 103.469 224.094 103.516C222.5 103.562 220.367 103.586 217.695 103.586C213.945 103.586 210.969 103.539 208.766 103.445C206.562 103.352 204.805 103.094 203.492 102.672C202.18 102.25 201.125 101.57 200.328 100.633C199.531 99.7422 198.594 98.4297 197.516 96.6953C195.125 92.8516 192.195 88.5859 188.727 83.8984C185.258 79.1641 181.766 74.6406 178.25 70.3281C178.344 73.8906 178.438 77.0547 178.531 79.8203C178.625 82.5391 178.742 85 178.883 87.2031C179.023 89.4062 179.141 91.4219 179.234 93.25C179.328 95.0781 179.375 96.9062 179.375 98.7344C179.375 99.6719 179.281 100.445 179.094 101.055C178.906 101.711 178.461 102.203 177.758 102.531C177.102 102.859 176.094 103.094 174.734 103.234C173.422 103.375 171.617 103.445 169.32 103.445C167.117 103.445 165.289 103.422 163.836 103.375C162.383 103.328 161.211 103.258 160.32 103.164C159.477 103.07 158.844 102.906 158.422 102.672C158 102.438 157.648 102.18 157.367 101.898C156.805 101.43 156.453 100.398 156.312 98.8047C156.219 97.2109 156.172 95.5469 156.172 93.8125C156.172 92.0781 156.172 89.5 156.172 86.0781C156.172 82.6094 156.148 78.5781 156.102 73.9844C156.055 69.3438 156.008 64.3047 155.961 58.8672C155.914 53.3828 155.867 47.7578 155.82 41.9922ZM239.422 100.984C239.422 100.609 239.516 100.141 239.703 99.5781C243.547 83.7344 247.508 68.0547 251.586 52.5391C255.664 37.0234 260.164 21.5547 265.086 6.13281C265.273 5.66406 265.602 5.28906 266.07 5.00781C266.539 4.67969 267.406 4.44531 268.672 4.30469C269.938 4.16406 271.648 4.07031 273.805 4.02344C275.961 3.97656 278.82 3.95312 282.383 3.95312C287.352 3.95312 291.43 4 294.617 4.09375C297.852 4.1875 300.406 4.32812 302.281 4.51562C304.156 4.70313 305.445 4.98438 306.148 5.35938C306.898 5.6875 307.32 6.03906 307.414 6.41406C311.164 22.7266 314.633 38.8047 317.82 54.6484C321.055 70.4922 324.219 86.4766 327.312 102.602V103.023C327.312 103.68 326.914 104.008 326.117 104.008C320.633 104.008 315.172 103.961 309.734 103.867C304.344 103.773 298.906 103.492 293.422 103.023C292.953 102.93 292.578 102.766 292.297 102.531C292.016 102.297 291.828 101.641 291.734 100.562L290.82 91.2109C289.461 92.4766 287.82 93.625 285.898 94.6562C284.023 95.6406 282.852 96.1328 282.383 96.1328C281.539 96.1328 280.695 95.4531 279.852 94.0938C279.008 92.7344 278.445 91.5859 278.164 90.6484L276.898 99.0156C276.711 99.7656 276.453 100.375 276.125 100.844C275.844 101.359 275.188 101.734 274.156 101.969C273.172 102.203 271.625 102.367 269.516 102.461C267.406 102.555 264.477 102.602 260.727 102.602C252.945 102.602 247.438 102.508 244.203 102.32C241.016 102.133 239.422 101.688 239.422 100.984ZM278.023 76.9375C280.695 75.0156 282.594 73.7266 283.719 73.0703C284.844 72.4141 285.781 72.0859 286.531 72.0859C287.094 72.0859 287.703 72.3203 288.359 72.7891C289.062 73.2578 290.141 74.4531 291.594 76.375C290.656 71.7812 289.695 67.2344 288.711 62.7344C287.727 58.1875 286.578 53.6172 285.266 49.0234C283.625 53.6172 282.242 58.2344 281.117 62.875C280.039 67.4688 279.008 72.1562 278.023 76.9375ZM325.133 22.375C325.133 19 325.156 15.8594 325.203 12.9531C325.25 10.0469 325.367 6.90625 325.555 3.53125C325.555 2.6875 325.977 2.24219 326.82 2.19531C331.039 2.00781 335.258 1.91406 339.477 1.91406C343.742 1.91406 348.031 1.91406 352.344 1.91406C368.75 1.91406 385.016 2.35937 401.141 3.25C402.031 3.25 402.477 3.67188 402.477 4.51562C402.664 7.79688 402.781 10.8438 402.828 13.6562C402.875 16.4219 402.898 19.375 402.898 22.5156C402.898 26.2656 402.852 30.0156 402.758 33.7656C402.664 37.5156 402.57 41.2656 402.477 45.0156C402.477 45.8594 402.031 46.2812 401.141 46.2812C398.281 46.2812 395.234 46.2812 392 46.2812C388.812 46.2812 385.766 46.3281 382.859 46.4219C382.672 49.7031 382.438 53.5 382.156 57.8125C381.875 62.125 381.5 66.7188 381.031 71.5938C380.609 76.4219 380.164 81.3906 379.695 86.5C379.227 91.5625 378.711 96.4375 378.148 101.125C378.148 102.484 374.633 103.164 367.602 103.164C364.039 103.164 360.922 103.094 358.25 102.953C355.578 102.812 352.977 102.648 350.445 102.461C349.977 102.367 349.648 102.086 349.461 101.617C349.273 101.195 349.133 100.281 349.039 98.875C348.758 89.5469 348.266 80.4766 347.562 71.6641C346.906 62.8047 346.203 54.2969 345.453 46.1406C342.359 45.9531 339.242 45.8594 336.102 45.8594C333.008 45.8594 329.914 45.8594 326.82 45.8594C325.977 45.8594 325.555 45.4375 325.555 44.5938C325.273 37.2812 325.133 29.875 325.133 22.375ZM397.906 100.984C397.906 100.609 398 100.141 398.188 99.5781C402.031 83.7344 405.992 68.0547 410.07 52.5391C414.148 37.0234 418.648 21.5547 423.57 6.13281C423.758 5.66406 424.086 5.28906 424.555 5.00781C425.023 4.67969 425.891 4.44531 427.156 4.30469C428.422 4.16406 430.133 4.07031 432.289 4.02344C434.445 3.97656 437.305 3.95312 440.867 3.95312C445.836 3.95312 449.914 4 453.102 4.09375C456.336 4.1875 458.891 4.32812 460.766 4.51562C462.641 4.70313 463.93 4.98438 464.633 5.35938C465.383 5.6875 465.805 6.03906 465.898 6.41406C469.648 22.7266 473.117 38.8047 476.305 54.6484C479.539 70.4922 482.703 86.4766 485.797 102.602V103.023C485.797 103.68 485.398 104.008 484.602 104.008C479.117 104.008 473.656 103.961 468.219 103.867C462.828 103.773 457.391 103.492 451.906 103.023C451.438 102.93 451.062 102.766 450.781 102.531C450.5 102.297 450.312 101.641 450.219 100.562L449.305 91.2109C447.945 92.4766 446.305 93.625 444.383 94.6562C442.508 95.6406 441.336 96.1328 440.867 96.1328C440.023 96.1328 439.18 95.4531 438.336 94.0938C437.492 92.7344 436.93 91.5859 436.648 90.6484L435.383 99.0156C435.195 99.7656 434.938 100.375 434.609 100.844C434.328 101.359 433.672 101.734 432.641 101.969C431.656 102.203 430.109 102.367 428 102.461C425.891 102.555 422.961 102.602 419.211 102.602C411.43 102.602 405.922 102.508 402.688 102.32C399.5 102.133 397.906 101.688 397.906 100.984ZM436.508 76.9375C439.18 75.0156 441.078 73.7266 442.203 73.0703C443.328 72.4141 444.266 72.0859 445.016 72.0859C445.578 72.0859 446.188 72.3203 446.844 72.7891C447.547 73.2578 448.625 74.4531 450.078 76.375C449.141 71.7812 448.18 67.2344 447.195 62.7344C446.211 58.1875 445.062 53.6172 443.75 49.0234C442.109 53.6172 440.727 58.2344 439.602 62.875C438.523 67.4688 437.492 72.1562 436.508 76.9375ZM529.109 51.625C529.109 44.5 530.352 37.8438 532.836 31.6562C535.32 25.4688 538.789 20.0781 543.242 15.4844C547.742 10.8906 553.133 7.25781 559.414 4.58594C565.695 1.86719 572.586 0.507812 580.086 0.507812C583.367 0.507812 586.156 0.578125 588.453 0.71875C590.75 0.859375 592.719 1.02344 594.359 1.21094C596.047 1.39844 597.477 1.67969 598.648 2.05469C599.867 2.38281 601.016 2.73438 602.094 3.10938C602.75 3.39062 603.359 4.75 603.922 7.1875C604.531 9.625 605 12.6953 605.328 16.3984C605.656 20.1016 605.914 24.25 606.102 28.8438C606.289 33.3906 606.383 37.9609 606.383 42.5547C606.383 43.3047 605.961 43.6797 605.117 43.6797C604.367 43.6797 603.148 43.4688 601.461 43.0469C599.773 42.625 596.961 42.4141 593.023 42.4141C589.555 42.4141 586.484 42.9531 583.812 44.0312C581.141 45.0625 578.867 46.5156 576.992 48.3906C575.117 50.2656 573.688 52.4688 572.703 55C571.766 57.5312 571.297 60.2969 571.297 63.2969C571.297 66.0625 571.766 68.7578 572.703 71.3828C573.688 73.9609 575.047 76.2109 576.781 78.1328C578.562 80.0547 580.742 81.6016 583.32 82.7734C585.945 83.8984 588.898 84.4609 592.18 84.4609C593.914 84.4609 595.297 84.3672 596.328 84.1797C597.406 83.9922 598.297 83.8047 599 83.6172C599.703 83.3828 600.242 83.1719 600.617 82.9844C601.039 82.7969 601.438 82.7031 601.812 82.7031C602.281 82.7031 602.68 82.9375 603.008 83.4062C603.336 83.8281 603.5 84.4141 603.5 85.1641C603.5 85.6328 603.477 86.9219 603.43 89.0312C603.383 91.1406 603.219 93.8359 602.938 97.1172C602.938 97.8672 602.305 98.6172 601.039 99.3672C599.82 100.07 598.227 100.703 596.258 101.266C594.289 101.875 592.039 102.344 589.508 102.672C586.977 103 584.352 103.164 581.633 103.164C575.023 103.164 568.578 102.227 562.297 100.352C556.016 98.4766 550.391 95.4766 545.422 91.3516C540.5 87.2266 536.539 81.9062 533.539 75.3906C530.586 68.875 529.109 60.9531 529.109 51.625ZM615.453 49.1641C615.453 42.1328 616.438 35.6875 618.406 29.8281C620.375 23.9219 623.211 18.8125 626.914 14.5C630.664 10.1406 635.211 6.74219 640.555 4.30469C645.898 1.86719 651.969 0.648438 658.766 0.648438C665.562 0.648438 671.586 1.91406 676.836 4.44531C682.086 6.97656 686.445 10.4219 689.914 14.7812C693.43 19.0938 696.102 24.1328 697.93 29.8984C699.758 35.6641 700.672 41.7578 700.672 48.1797C700.672 55.2109 699.781 62.0312 698 68.6406C696.219 75.25 693.547 81.1562 689.984 86.3594C686.469 91.5156 682.086 95.6641 676.836 98.8047C671.586 101.898 665.469 103.445 658.484 103.445C651.969 103.445 646.062 102.18 640.766 99.6484C635.469 97.1172 630.945 93.5078 627.195 88.8203C623.492 84.0859 620.609 78.3672 618.547 71.6641C616.484 64.9141 615.453 57.4141 615.453 49.1641ZM648.43 60.8359C648.43 66.2266 649.32 70.6562 651.102 74.125C652.883 77.5469 655.109 79.2578 657.781 79.2578C660.547 79.2578 662.797 77.5234 664.531 74.0547C666.266 70.5391 667.133 66.1328 667.133 60.8359C667.133 55.9609 666.43 52.5391 665.023 50.5703C663.617 48.6016 661.391 47.6172 658.344 47.6172C654.5 47.6172 651.875 48.6016 650.469 50.5703C649.109 52.4922 648.43 55.9141 648.43 60.8359ZM736.531 100.562C736.531 102.531 736.109 104.266 735.266 105.766C734.422 107.266 733.297 108.484 731.891 109.422C730.578 110.453 729.031 111.203 727.25 111.672C725.562 112.234 723.828 112.516 722.047 112.516C720.359 112.516 718.578 112.281 716.703 111.812C714.922 111.344 713.281 110.594 711.781 109.562C710.281 108.625 709.062 107.406 708.125 105.906C707.188 104.5 706.719 102.812 706.719 100.844C706.719 98.7812 707.141 96.9531 707.984 95.3594C708.922 93.7656 710.094 92.4531 711.5 91.4219C713 90.2969 714.641 89.4531 716.422 88.8906C718.203 88.3281 720.031 88.0469 721.906 88.0469C723.594 88.0469 725.281 88.375 726.969 89.0312C728.75 89.5938 730.344 90.4375 731.75 91.5625C733.156 92.6875 734.281 94.0469 735.125 95.6406C736.062 97.1406 736.531 98.7812 736.531 100.562Z" fill="#464646"></path></svg> 