<?xml version="1.0" encoding="UTF-8"?> <!-- Generator: Adobe Illustrator 17.1.0, SVG Export Plug-In . SVG Version: 6.00 Build 0) --> <svg xmlns="http://www.w3.org/2000/svg" xmlns:xlink="http://www.w3.org/1999/xlink" version="1.1" id="Layer_1" x="0px" y="0px" viewBox="0 0 141.7 141.7" xml:space="preserve"> <g> <path fill-rule="evenodd" clip-rule="evenodd" fill="#F7F07F" stroke="#010101" stroke-width="0.5556" stroke-miterlimit="22.9256" d=" M70.9,140.3c38.3,0,69.4-31.2,69.4-69.4c0-38.3-31.2-69.4-69.4-69.4C32.6,1.4,1.4,32.6,1.4,70.9C1.4,109.1,32.6,140.3,70.9,140.3z"></path> <linearGradient id="SVGID_1_" gradientUnits="userSpaceOnUse" x1="69.2686" y1="61.7781" x2="67.3086" y2="109.7981"> <stop offset="4.975124e-003" style="stop-color:#EDA7CA"></stop> <stop offset="1" style="stop-color:#BCDCE5"></stop> </linearGradient> <path fill-rule="evenodd" clip-rule="evenodd" fill="url(#SVGID_1_)" stroke="#010101" stroke-width="2.3524" stroke-linecap="round" stroke-linejoin="round" stroke-miterlimit="22.9256" d=" M68.1,49.6c10.7,0,24,31.1,24,39.9c0,13.4-10.7,24.3-24,24.3c-13.2,0-24-10.9-24-24.3C44.1,80,56.8,49.6,68.1,49.6z"></path> <g> <path fill="#B4B2B4" d="M57.3,29.1c0,1.2-0.1,2.3-0.3,3.2c-0.2,0.9-0.5,1.7-0.9,2.3c-0.4,0.6-1,1.1-1.7,1.4 c-0.7,0.3-1.5,0.5-2.6,0.5c-1,0-1.8-0.2-2.5-0.5c-0.7-0.3-1.3-0.8-1.7-1.4c-0.4-0.6-0.7-1.4-0.9-2.3c-0.2-0.9-0.3-2-0.3-3.2 c0-1.3,0.1-2.3,0.3-3.2c0.2-0.9,0.5-1.7,1-2.3c0.4-0.6,1-1.1,1.7-1.4c0.7-0.3,1.5-0.5,2.5-0.5c1,0,1.9,0.2,2.6,0.5 c0.7,0.3,1.2,0.8,1.7,1.4c0.4,0.6,0.7,1.4,0.9,2.3C57.2,26.8,57.3,27.9,57.3,29.1z M53.7,29.1c0-1.8-0.1-3-0.4-3.7 c-0.3-0.7-0.8-1.1-1.5-1.1c-0.7,0-1.2,0.4-1.5,1.1c-0.3,0.7-0.4,2-0.4,3.7c0,1.7,0.1,3,0.4,3.7c0.3,0.7,0.8,1.1,1.5,1.1 s1.2-0.4,1.5-1.1C53.6,32,53.7,30.8,53.7,29.1z"></path> <path fill="#B4B2B4" d="M63.4,32.4l-3.3,7.3h-2l1.9-7.3H63.4z"></path> <path fill="#B4B2B4" d="M76.1,32.2c0,0.6-0.1,1.2-0.4,1.7c-0.3,0.5-0.6,1-1.1,1.4c-0.5,0.4-1.1,0.7-1.8,0.9 c-0.7,0.2-1.5,0.3-2.4,0.3c-1,0-1.8-0.1-2.5-0.3c-0.7-0.2-1.3-0.5-1.8-0.9c-0.5-0.4-0.8-0.8-1-1.3c-0.2-0.5-0.3-1-0.3-1.6 c0-0.8,0.2-1.5,0.7-2c0.4-0.5,1.1-1,2-1.4v-0.1c-0.8-0.4-1.4-0.9-1.8-1.5c-0.3-0.6-0.5-1.2-0.5-1.9c0-0.5,0.1-1,0.3-1.5 c0.2-0.5,0.6-0.9,1-1.2c0.4-0.3,1-0.6,1.7-0.8c0.7-0.2,1.4-0.3,2.2-0.3c0.9,0,1.6,0.1,2.3,0.3c0.7,0.2,1.2,0.4,1.6,0.7 c0.4,0.3,0.8,0.7,1,1.1c0.2,0.4,0.3,0.9,0.3,1.4c0,0.7-0.2,1.3-0.6,1.8c-0.4,0.5-1,1-1.8,1.4v0.1c0.9,0.4,1.6,0.9,2.1,1.5 C75.9,30.6,76.1,31.4,76.1,32.2z M72.6,32.4c0-0.5-0.1-0.8-0.3-1.1c-0.2-0.2-0.6-0.5-1.3-0.8c-0.2-0.1-0.5-0.2-0.8-0.3 c-0.3-0.1-0.7-0.3-0.9-0.4c-0.2,0.2-0.5,0.6-0.7,0.9c-0.2,0.4-0.3,0.8-0.3,1.2c0,0.7,0.2,1.2,0.6,1.6c0.4,0.4,1,0.6,1.7,0.6 c0.2,0,0.4,0,0.6-0.1s0.5-0.2,0.6-0.3c0.2-0.1,0.4-0.3,0.5-0.5C72.5,33,72.6,32.7,72.6,32.4z M72.3,25.6c0-0.5-0.2-0.9-0.5-1.2 C71.5,24.2,71,24,70.5,24c-0.5,0-0.9,0.1-1.3,0.4c-0.3,0.3-0.5,0.6-0.5,1s0.1,0.7,0.3,0.9c0.2,0.2,0.5,0.4,0.9,0.6 c0.2,0.1,0.4,0.2,0.6,0.3c0.2,0.1,0.6,0.2,1,0.4c0.2-0.3,0.4-0.6,0.5-0.9C72.2,26.4,72.3,26,72.3,25.6z"></path> <path fill="#B4B2B4" d="M96,36.2h-3.3v-6.7l-2.2,4.5h-1.4l-2.2-4.5v6.7h-3.2V25.4h3.6l2.5,5l2.5-5H96V36.2z"></path> </g> <path fill-rule="evenodd" clip-rule="evenodd" fill="none" stroke="#4E4F4F" stroke-width="0.8576" stroke-miterlimit="22.9256" stroke-dasharray="8.5756,4.2878" d=" M68.1,85.6c12.3,0,22.4-1.3,22.4-2.9c0-1.6-10-2.9-22.4-2.9s-22.4,1.3-22.4,2.9C45.7,84.3,55.8,85.6,68.1,85.6z"></path> </g> </svg> 