<?xml version="1.0" encoding="UTF-8"?> <!-- Generator: Adobe Illustrator 17.1.0, SVG Export Plug-In . SVG Version: 6.00 Build 0) --> <svg xmlns="http://www.w3.org/2000/svg" xmlns:xlink="http://www.w3.org/1999/xlink" version="1.1" id="Layer_1" x="0px" y="0px" viewBox="0 0 141.7 141.7" xml:space="preserve"> <g> <path fill-rule="evenodd" clip-rule="evenodd" fill="#F7F07F" stroke="#010101" stroke-width="0.5556" stroke-miterlimit="22.9256" d=" M70.9,140.3c38.3,0,69.4-31.2,69.4-69.4c0-38.3-31.2-69.4-69.4-69.4C32.6,1.4,1.4,32.6,1.4,70.9C1.4,109.1,32.6,140.3,70.9,140.3z"></path> <linearGradient id="SVGID_1_" gradientUnits="userSpaceOnUse" x1="70.8639" y1="51.2248" x2="70.8639" y2="114.9248"> <stop offset="4.975124e-003" style="stop-color:#EDA7CA"></stop> <stop offset="1" style="stop-color:#BCDCE5"></stop> </linearGradient> <path fill-rule="evenodd" clip-rule="evenodd" fill="url(#SVGID_1_)" stroke="#010101" stroke-width="2.3524" stroke-linecap="round" stroke-linejoin="round" stroke-miterlimit="22.9256" d=" M70.9,126.2c25.1,0,45.6-20.5,45.6-45.6C116.4,55.5,96,35,70.9,35c-25.1,0-45.6,20.5-45.6,45.6C25.3,105.7,45.8,126.2,70.9,126.2z"></path> <g> <path fill="#B4B2B4" d="M56.5,30h-9.4v-2.5h3V20h-3v-2.3c0.4,0,0.9,0,1.3-0.1c0.4-0.1,0.8-0.1,1-0.3c0.3-0.2,0.5-0.4,0.7-0.6 c0.2-0.3,0.3-0.6,0.3-1h3.1v11.8h2.9V30z"></path> <path fill="#B4B2B4" d="M63,26.3l-3.3,7.3h-2l1.9-7.3H63z"></path> <path fill="#B4B2B4" d="M75.9,26.7H74v3.4h-3.5v-3.4h-6.3V24l6.2-8.3H74v8.4h1.9V26.7z M70.5,24.1v-4.9l-3.6,4.9H70.5z"></path> <path fill="#B4B2B4" d="M95.6,30h-3.3v-6.7l-2.2,4.5h-1.4l-2.2-4.5V30h-3.2V19.3H87l2.5,5l2.5-5h3.6V30z"></path> </g> <path fill-rule="evenodd" clip-rule="evenodd" fill="none" stroke="#4E4F4F" stroke-width="0.9801" stroke-miterlimit="22.9256" stroke-dasharray="9.8006,4.9003" d=" M70.9,85.6c24.5,0,44.6-2.2,44.6-5c0-2.7-20-5-44.6-5s-44.6,2.2-44.6,5C26.3,83.4,46.3,85.6,70.9,85.6z"></path> </g> </svg> 