<?xml version="1.0" encoding="UTF-8"?> <!-- Generator: Adobe Illustrator 17.1.0, SVG Export Plug-In . SVG Version: 6.00 Build 0) --> <svg xmlns="http://www.w3.org/2000/svg" xmlns:xlink="http://www.w3.org/1999/xlink" version="1.1" id="Layer_1" x="0px" y="0px" viewBox="0 0 141.7 141.7" xml:space="preserve"> <g> <path fill-rule="evenodd" clip-rule="evenodd" fill="#F7F07F" stroke="#010101" stroke-width="0.5556" stroke-miterlimit="22.9256" d=" M70.9,140.3c38.3,0,69.4-31.2,69.4-69.4c0-38.3-31.2-69.4-69.4-69.4C32.6,1.4,1.4,32.6,1.4,70.9C1.4,109.1,32.6,140.3,70.9,140.3z"></path> <linearGradient id="SVGID_1_" gradientUnits="userSpaceOnUse" x1="72.0472" y1="56.0982" x2="70.0872" y2="104.1182"> <stop offset="4.975124e-003" style="stop-color:#EDA7CA"></stop> <stop offset="1" style="stop-color:#BCDCE5"></stop> </linearGradient> <path fill-rule="evenodd" clip-rule="evenodd" fill="url(#SVGID_1_)" stroke="#010101" stroke-width="2.3524" stroke-linecap="round" stroke-linejoin="round" stroke-miterlimit="22.9256" d=" M71,120.7c20.9,0,38-17.1,38-38c0-20.9-17.1-38-38-38c-20.9,0-38,17.1-38,38C33,103.6,50,120.7,71,120.7z"></path> <g> <path fill="#B4B2B4" d="M56.6,34.1h-9.4v-2.5h3v-7.5h-3v-2.3c0.4,0,0.9,0,1.3-0.1c0.4-0.1,0.8-0.1,1-0.3c0.3-0.2,0.5-0.4,0.7-0.6 c0.2-0.3,0.3-0.6,0.3-1h3.1v11.8h2.9V34.1z"></path> <path fill="#B4B2B4" d="M63.1,30.4l-3.3,7.3h-2l1.9-7.3H63.1z"></path> <path fill="#B4B2B4" d="M75.2,34.1h-9.4v-2.5h3v-7.5h-3v-2.3c0.4,0,0.9,0,1.3-0.1c0.4-0.1,0.8-0.1,1-0.3c0.3-0.2,0.5-0.4,0.7-0.6 c0.2-0.3,0.3-0.6,0.3-1h3.1v11.8h2.9V34.1z"></path> <path fill="#B4B2B4" d="M95.7,34.1h-3.3v-6.7l-2.2,4.5h-1.4l-2.2-4.5v6.7h-3.2V23.4h3.6l2.5,5l2.5-5h3.6V34.1z"></path> </g> <path fill-rule="evenodd" clip-rule="evenodd" fill="none" stroke="#4E4F4F" stroke-width="0.9801" stroke-miterlimit="22.9256" stroke-dasharray="9.8006,4.9003" d=" M71,86.8c20.5,0,37.2-1.9,37.2-4.2c0-2.3-16.7-4.2-37.2-4.2c-20.5,0-37.2,1.9-37.2,4.2C33.8,84.9,50.5,86.8,71,86.8z"></path> </g> </svg> 