<?xml version="1.0" encoding="UTF-8"?> <svg xmlns="http://www.w3.org/2000/svg" width="512" height="512" viewBox="0 0 512 512" fill="none"><path d="M214.281 195.464H399.234C414.595 195.464 427.047 207.916 427.047 223.276V330.105C427.047 345.465 414.595 357.917 399.234 357.917H363.402L339.439 399.422L315.476 357.917H214.281C198.921 357.917 186.469 345.464 186.469 330.104V223.276C186.469 207.916 198.921 195.464 214.281 195.464V195.464Z" fill="#FF7D97"></path><path d="M297.719 112.953H112.766C97.4055 112.953 84.9531 125.405 84.9531 140.766V247.594C84.9531 262.954 97.4055 275.407 112.766 275.407H122.5L146.463 316.912L170.426 275.407H297.719C313.079 275.407 325.531 262.954 325.531 247.594V140.766C325.531 125.405 313.079 112.953 297.719 112.953V112.953Z" fill="#FFCD69"></path><path d="M271.992 210.867C281.208 210.867 288.68 203.396 288.68 194.18C288.68 184.963 281.208 177.492 271.992 177.492C262.776 177.492 255.305 184.963 255.305 194.18C255.305 203.396 262.776 210.867 271.992 210.867Z" fill="white"></path><path d="M205.242 210.867C214.458 210.867 221.93 203.396 221.93 194.18C221.93 184.963 214.458 177.492 205.242 177.492C196.026 177.492 188.555 184.963 188.555 194.18C188.555 203.396 196.026 210.867 205.242 210.867Z" fill="white"></path><path d="M138.492 210.868C147.708 210.868 155.18 203.396 155.18 194.18C155.18 184.964 147.708 177.493 138.492 177.493C129.276 177.493 121.805 184.964 121.805 194.18C121.805 203.396 129.276 210.868 138.492 210.868Z" fill="white"></path><path d="M399.234 188.511H332.484V140.766C332.484 121.596 316.889 106 297.719 106H236.531C232.691 106 229.578 109.113 229.578 112.953C229.578 116.793 232.691 119.906 236.531 119.906H297.719C309.221 119.906 318.578 129.264 318.578 140.766V247.594C318.578 259.096 309.221 268.454 297.719 268.454H170.426C167.942 268.454 165.646 269.779 164.404 271.93L146.463 303.006L128.521 271.93C127.28 269.779 124.984 268.454 122.5 268.454H112.766C101.264 268.454 91.9062 259.096 91.9062 247.594V140.766C91.9062 129.264 101.264 119.906 112.766 119.906H173.953C177.793 119.906 180.906 116.793 180.906 112.953C180.906 109.113 177.793 106 173.953 106H112.766C93.5959 106 78 121.596 78 140.766V247.594C78 266.764 93.5959 282.36 112.766 282.36H118.486L140.442 320.388C141.684 322.54 143.98 323.865 146.463 323.865C148.947 323.865 151.243 322.54 152.485 320.388L174.44 282.36H179.516V330.105C179.516 349.275 195.111 364.87 214.281 364.87H311.462L333.417 402.898C334.659 405.05 336.955 406.375 339.439 406.375C341.923 406.375 344.218 405.05 345.46 402.898L367.416 364.87H399.234C418.404 364.87 434 349.274 434 330.104V223.276C434 204.106 418.404 188.511 399.234 188.511V188.511ZM420.094 330.104C420.094 341.606 410.736 350.963 399.234 350.963H363.402C360.918 350.963 358.623 352.289 357.381 354.44L339.439 385.516L321.497 354.44C320.255 352.289 317.959 350.963 315.476 350.963H214.281C202.779 350.963 193.422 341.606 193.422 330.104V282.359H297.719C316.889 282.359 332.484 266.763 332.484 247.593V202.416H399.234C410.736 202.416 420.094 211.774 420.094 223.276V330.104Z" fill="black"></path><path d="M295.633 194.179C295.633 181.144 285.028 170.539 271.992 170.539C258.956 170.539 248.352 181.144 248.352 194.179C248.352 207.215 258.956 217.82 271.992 217.82C285.028 217.82 295.633 207.215 295.633 194.179ZM262.258 194.179C262.258 188.811 266.624 184.445 271.992 184.445C277.36 184.445 281.727 188.811 281.727 194.179C281.727 199.547 277.36 203.914 271.992 203.914C266.624 203.914 262.258 199.547 262.258 194.179Z" fill="black"></path><path d="M205.242 217.82C218.278 217.82 228.883 207.215 228.883 194.179C228.883 181.144 218.278 170.539 205.242 170.539C192.206 170.539 181.602 181.144 181.602 194.179C181.602 207.215 192.206 217.82 205.242 217.82ZM205.242 184.445C210.61 184.445 214.977 188.811 214.977 194.179C214.977 199.547 210.61 203.914 205.242 203.914C199.874 203.914 195.508 199.547 195.508 194.179C195.508 188.811 199.874 184.445 205.242 184.445Z" fill="black"></path><path d="M114.852 194.179C114.852 207.215 125.456 217.82 138.492 217.82C151.528 217.82 162.133 207.215 162.133 194.179C162.133 181.144 151.528 170.539 138.492 170.539C125.456 170.539 114.852 181.144 114.852 194.179ZM148.227 194.179C148.227 199.547 143.86 203.914 138.492 203.914C133.124 203.914 128.758 199.547 128.758 194.179C128.758 188.811 133.124 184.445 138.492 184.445C143.86 184.445 148.227 188.812 148.227 194.179Z" fill="black"></path><path d="M205.242 119.906C207.071 119.906 208.865 119.162 210.157 117.869C211.451 116.576 212.195 114.782 212.195 112.953C212.195 111.124 211.451 109.331 210.157 108.037C208.865 106.744 207.071 106 205.242 106C203.414 106 201.62 106.744 200.326 108.037C199.033 109.331 198.289 111.124 198.289 112.953C198.289 114.782 199.032 116.576 200.326 117.869C201.62 119.162 203.414 119.906 205.242 119.906Z" fill="black"></path></svg> 